<svg width="40" height="40" viewBox="0 0 40 40" fill="none" xmlns="http://www.w3.org/2000/svg">
<path d="M20.0233 10.9C20.0233 10.9 23.6017 4.285 25.815 0L40 14.185C35.695 16.3867 29.0733 19.95 29.0733 19.95L20.0233 10.9ZM5.82833 21.605C5.82833 21.605 3.59667 30.3617 0 35.945L1.37833 37.3217L7.99 30.71C8.57 30.13 8.93833 29.375 9.03833 28.5633C9.095 28.1133 9.29333 27.6767 9.64 27.33C10.47 26.5 11.8167 26.5 12.645 27.33C13.475 28.1617 13.475 29.505 12.645 30.335C12.2983 30.6833 11.8633 30.8817 11.4117 30.9367C10.5983 31.0383 9.845 31.405 9.265 31.9867L2.65333 38.6L4.03 40C9.55333 36.445 18.37 34.1483 18.37 34.1483L25.4733 21.0867L18.8883 14.5017L5.82833 21.605Z" fill="white"/>
</svg>
