<svg width="64" height="64" viewBox="0 0 64 64" fill="none" xmlns="http://www.w3.org/2000/svg">
<circle cx="32" cy="32" r="32" fill="#7B1FA3"/>
<path d="M32.0233 22.9C32.0233 22.9 35.6017 16.285 37.815 12L52 26.185C47.695 28.3867 41.0733 31.95 41.0733 31.95L32.0233 22.9ZM17.8283 33.605C17.8283 33.605 15.5967 42.3617 12 47.945L13.3783 49.3217L19.99 42.71C20.57 42.13 20.9383 41.375 21.0383 40.5633C21.095 40.1133 21.2933 39.6767 21.64 39.33C22.47 38.5 23.8167 38.5 24.645 39.33C25.475 40.1617 25.475 41.505 24.645 42.335C24.2983 42.6833 23.8633 42.8817 23.4117 42.9367C22.5983 43.0383 21.845 43.405 21.265 43.9867L14.6533 50.6L16.03 52C21.5533 48.445 30.37 46.1483 30.37 46.1483L37.4733 33.0867L30.8883 26.5017L17.8283 33.605Z" fill="white"/>
</svg>
